{
    "asset" : {
        "generator" : "Khronos glTF Blender I/O v1.7.33",
        "version" : "2.0"
    },
    "scene" : 0,
    "scenes" : [
        {
            "name" : "Scene",
            "nodes" : [
                0,
                1,
                2,
                3,
                4
            ]
        }
    ],
    "nodes" : [
        {
            "extras" : {
                "ant_landscape" : {}
            },
            "mesh" : 0,
            "name" : "Plane"
        },
        {
            "mesh" : 1,
            "name" : "Cube",
            "scale" : [
                0.4029175341129303,
                0.4029175341129303,
                0.4029175341129303
            ],
            "translation" : [
                0.26050621271133423,
                -1.5735626220703125e-05,
                -2.4367880821228027
            ]
        },
        {
            "mesh" : 2,
            "name" : "Cube.001",
            "rotation" : [
                0,
                0.7894248962402344,
                0,
                0.6138471961021423
            ],
            "scale" : [
                0.4029175341129303,
                0.4029175341129303,
                0.4029175341129303
            ],
            "translation" : [
                -0.7639443278312683,
                -1.5735626220703125e-05,
                -2.2581191062927246
            ]
        },
        {
            "mesh" : 3,
            "name" : "Cube.002",
            "rotation" : [
                0,
                0.5770772695541382,
                0,
                -0.8166895508766174
            ],
            "scale" : [
                0.4029175341129303,
                0.4029175341129303,
                0.4029175341129303
            ],
            "translation" : [
                -0.29326537251472473,
                0.8058193325996399,
                -2.378755569458008
            ]
        },
        {
            "mesh" : 4,
            "name" : "Cube.003",
            "rotation" : [
                0,
                0.8271012306213379,
                0,
                0.5620529651641846
            ],
            "scale" : [
                0.4029175341129303,
                0.4029175341129303,
                0.4029175341129303
            ],
            "translation" : [
                -2.6219656467437744,
                -1.5735626220703125e-05,
                0.2566688060760498
            ]
        }
    ],
    "materials" : [
        {
            "doubleSided" : true,
            "name" : "Material",
            "pbrMetallicRoughness" : {
                "baseColorTexture" : {
                    "index" : 0
                },
                "metallicFactor" : 0.3136363625526428,
                "roughnessFactor" : 0.9090908765792847
            }
        },
        {
            "doubleSided" : true,
            "name" : "Material2",
            "pbrMetallicRoughness" : {
                "baseColorTexture" : {
                    "index" : 1
                },
                "metallicFactor" : 0.3136363625526428,
                "roughnessFactor" : 0.9090908765792847
            }
        }
    ],
    "meshes" : [
        {
            "name" : "Plane",
            "primitives" : [
                {
                    "attributes" : {
                        "POSITION" : 0,
                        "NORMAL" : 1,
                        "TEXCOORD_0" : 2
                    },
                    "indices" : 3,
                    "material" : 0
                }
            ]
        },
        {
            "name" : "Cube.002",
            "primitives" : [
                {
                    "attributes" : {
                        "POSITION" : 4,
                        "NORMAL" : 5,
                        "TEXCOORD_0" : 6
                    },
                    "indices" : 7,
                    "material" : 1
                }
            ]
        },
        {
            "name" : "Cube.003",
            "primitives" : [
                {
                    "attributes" : {
                        "POSITION" : 8,
                        "NORMAL" : 9,
                        "TEXCOORD_0" : 10
                    },
                    "indices" : 7,
                    "material" : 1
                }
            ]
        },
        {
            "name" : "Cube.004",
            "primitives" : [
                {
                    "attributes" : {
                        "POSITION" : 11,
                        "NORMAL" : 12,
                        "TEXCOORD_0" : 13
                    },
                    "indices" : 7,
                    "material" : 1
                }
            ]
        },
        {
            "name" : "Cube.005",
            "primitives" : [
                {
                    "attributes" : {
                        "POSITION" : 14,
                        "NORMAL" : 15,
                        "TEXCOORD_0" : 16
                    },
                    "indices" : 17,
                    "material" : 1
                }
            ]
        }
    ],
    "textures" : [
        {
            "sampler" : 0,
            "source" : 0
        },
        {
            "sampler" : 0,
            "source" : 1
        }
    ],
    "images" : [
        {
            "bufferView" : 4,
            "mimeType" : "image/png",
            "name" : "uvgrid"
        },
        {
            "bufferView" : 9,
            "mimeType" : "image/png",
            "name" : "colorgrid"
        }
    ],
    "accessors" : [
        {
            "bufferView" : 0,
            "componentType" : 5126,
            "count" : 4,
            "max" : [
                5.964524269104004,
                0,
                5.964524269104004
            ],
            "min" : [
                -5.964524269104004,
                0,
                -5.964524269104004
            ],
            "type" : "VEC3"
        },
        {
            "bufferView" : 1,
            "componentType" : 5126,
            "count" : 4,
            "type" : "VEC3"
        },
        {
            "bufferView" : 2,
            "componentType" : 5126,
            "count" : 4,
            "type" : "VEC2"
        },
        {
            "bufferView" : 3,
            "componentType" : 5123,
            "count" : 6,
            "type" : "SCALAR"
        },
        {
            "bufferView" : 5,
            "componentType" : 5126,
            "count" : 24,
            "max" : [
                1,
                2,
                1
            ],
            "min" : [
                -1,
                0,
                -1
            ],
            "type" : "VEC3"
        },
        {
            "bufferView" : 6,
            "componentType" : 5126,
            "count" : 24,
            "type" : "VEC3"
        },
        {
            "bufferView" : 7,
            "componentType" : 5126,
            "count" : 24,
            "type" : "VEC2"
        },
        {
            "bufferView" : 8,
            "componentType" : 5123,
            "count" : 36,
            "type" : "SCALAR"
        },
        {
            "bufferView" : 10,
            "componentType" : 5126,
            "count" : 24,
            "max" : [
                1,
                2,
                1
            ],
            "min" : [
                -1,
                0,
                -1
            ],
            "type" : "VEC3"
        },
        {
            "bufferView" : 11,
            "componentType" : 5126,
            "count" : 24,
            "type" : "VEC3"
        },
        {
            "bufferView" : 12,
            "componentType" : 5126,
            "count" : 24,
            "type" : "VEC2"
        },
        {
            "bufferView" : 13,
            "componentType" : 5126,
            "count" : 24,
            "max" : [
                1,
                2,
                1
            ],
            "min" : [
                -1,
                0,
                -1
            ],
            "type" : "VEC3"
        },
        {
            "bufferView" : 14,
            "componentType" : 5126,
            "count" : 24,
            "type" : "VEC3"
        },
        {
            "bufferView" : 15,
            "componentType" : 5126,
            "count" : 24,
            "type" : "VEC2"
        },
        {
            "bufferView" : 16,
            "componentType" : 5126,
            "count" : 24,
            "max" : [
                0.9999998807907104,
                1.999999761581421,
                0.9999997615814209
            ],
            "min" : [
                -0.9999998807907104,
                -2.384185791015625e-07,
                -1
            ],
            "type" : "VEC3"
        },
        {
            "bufferView" : 17,
            "componentType" : 5126,
            "count" : 24,
            "type" : "VEC3"
        },
        {
            "bufferView" : 18,
            "componentType" : 5126,
            "count" : 24,
            "type" : "VEC2"
        },
        {
            "bufferView" : 19,
            "componentType" : 5123,
            "count" : 36,
            "type" : "SCALAR"
        }
    ],
    "bufferViews" : [
        {
            "buffer" : 0,
            "byteLength" : 48,
            "byteOffset" : 0
        },
        {
            "buffer" : 0,
            "byteLength" : 48,
            "byteOffset" : 48
        },
        {
            "buffer" : 0,
            "byteLength" : 32,
            "byteOffset" : 96
        },
        {
            "buffer" : 0,
            "byteLength" : 12,
            "byteOffset" : 128
        },
        {
            "buffer" : 0,
            "byteLength" : 134836,
            "byteOffset" : 140
        },
        {
            "buffer" : 0,
            "byteLength" : 288,
            "byteOffset" : 134976
        },
        {
            "buffer" : 0,
            "byteLength" : 288,
            "byteOffset" : 135264
        },
        {
            "buffer" : 0,
            "byteLength" : 192,
            "byteOffset" : 135552
        },
        {
            "buffer" : 0,
            "byteLength" : 72,
            "byteOffset" : 135744
        },
        {
            "buffer" : 0,
            "byteLength" : 287579,
            "byteOffset" : 135816
        },
        {
            "buffer" : 0,
            "byteLength" : 288,
            "byteOffset" : 423396
        },
        {
            "buffer" : 0,
            "byteLength" : 288,
            "byteOffset" : 423684
        },
        {
            "buffer" : 0,
            "byteLength" : 192,
            "byteOffset" : 423972
        },
        {
            "buffer" : 0,
            "byteLength" : 288,
            "byteOffset" : 424164
        },
        {
            "buffer" : 0,
            "byteLength" : 288,
            "byteOffset" : 424452
        },
        {
            "buffer" : 0,
            "byteLength" : 192,
            "byteOffset" : 424740
        },
        {
            "buffer" : 0,
            "byteLength" : 288,
            "byteOffset" : 424932
        },
        {
            "buffer" : 0,
            "byteLength" : 288,
            "byteOffset" : 425220
        },
        {
            "buffer" : 0,
            "byteLength" : 192,
            "byteOffset" : 425508
        },
        {
            "buffer" : 0,
            "byteLength" : 72,
            "byteOffset" : 425700
        }
    ],
    "samplers" : [
        {
            "magFilter" : 9729,
            "minFilter" : 9987
        }
    ],
    "buffers" : [
        {
            "byteLength" : 425772,
            "uri" : "data:application/octet-stream;base64,"
        }
    ]
}
